<?xml version="1.0" encoding="UTF-8" standalone="no"?>
<!-- Created with Inkscape (http://www.inkscape.org/) -->

<svg
   width="105.68806mm"
   height="47.018776mm"
   viewBox="0 0 105.68806 47.018776"
   version="1.1"
   id="svg5"
   inkscape:version="1.1.2 (0a00cf5339, 2022-02-04, custom)"
   sodipodi:docname="logo.svg"
   xmlns:inkscape="http://www.inkscape.org/namespaces/inkscape"
   xmlns:sodipodi="http://sodipodi.sourceforge.net/DTD/sodipodi-0.dtd"
   xmlns:xlink="http://www.w3.org/1999/xlink"
   xmlns="http://www.w3.org/2000/svg"
   xmlns:svg="http://www.w3.org/2000/svg">
  <sodipodi:namedview
     id="namedview7"
     pagecolor="#ffffff"
     bordercolor="#666666"
     borderopacity="1.0"
     inkscape:pageshadow="2"
     inkscape:pageopacity="0"
     inkscape:pagecheckerboard="0"
     inkscape:document-units="mm"
     showgrid="false"
     fit-margin-top="0"
     fit-margin-left="0"
     fit-margin-right="0"
     fit-margin-bottom="0"
     inkscape:zoom="1.466344"
     inkscape:cx="96.839487"
     inkscape:cy="12.957396"
     inkscape:window-width="1920"
     inkscape:window-height="1009"
     inkscape:window-x="-8"
     inkscape:window-y="-8"
     inkscape:window-maximized="1"
     inkscape:current-layer="layer1" />
  <defs
     id="defs2">
    <linearGradient
       id="linearGradient19003"
       inkscape:swatch="solid">
      <stop
         style="stop-color:#000000;stop-opacity:1;"
         offset="0"
         id="stop19001" />
    </linearGradient>
    <linearGradient
       inkscape:collect="always"
       id="linearGradient7947">
      <stop
         style="stop-color:#f3f520;stop-opacity:1"
         offset="0"
         id="stop7943" />
      <stop
         style="stop-color:#59d102;stop-opacity:1"
         offset="1"
         id="stop7945" />
    </linearGradient>
    <linearGradient
       inkscape:collect="always"
       xlink:href="#linearGradient7947"
       id="linearGradient7949"
       x1="57.53231"
       y1="83.460106"
       x2="102.54225"
       y2="57.473606"
       gradientUnits="userSpaceOnUse" />
    <linearGradient
       inkscape:collect="always"
       xlink:href="#linearGradient7947"
       id="linearGradient22383"
       gradientUnits="userSpaceOnUse"
       x1="57.53231"
       y1="83.460106"
       x2="102.54225"
       y2="57.473606" />
    <linearGradient
       inkscape:collect="always"
       xlink:href="#linearGradient7947"
       id="linearGradient22385"
       gradientUnits="userSpaceOnUse"
       x1="57.53231"
       y1="83.460106"
       x2="102.54225"
       y2="57.473606" />
  </defs>
  <g
     inkscape:label="Layer 1"
     inkscape:groupmode="layer"
     id="layer1"
     transform="translate(-52.15597,-55.753564)">
    <g
       id="g30425"
       inkscape:label="g30425">
      <g
         aria-label="&lt;&gt;"
         id="text1860"
         style="font-weight:bold;font-size:52.9167px;line-height:1.25;font-family:Consolas;-inkscape-font-specification:'Consolas Bold';letter-spacing:-5.29167px;fill:url(#linearGradient7949);fill-opacity:1;stroke:#505050;stroke-width:1;stroke-miterlimit:4;stroke-dasharray:none;stroke-opacity:1"
         transform="translate(25.142506)"
         inkscape:label="Logo">
        <path
           d="M 73.459945,85.760745 56.044977,71.08463 73.459945,56.434352 l 4.030764,4.082441 -12.815763,10.51616 12.815763,10.645351 z"
           id="path6911"
           style="fill:url(#linearGradient22383);fill-opacity:1;stroke:#505050;stroke-width:1;stroke-miterlimit:4;stroke-dasharray:none;stroke-opacity:1" />
        <path
           d="M 86.255038,56.434352 103.67001,71.08463 86.255038,85.760745 82.250112,81.678304 95.040036,71.136306 82.250112,60.516793 Z"
           id="path6913"
           style="fill:url(#linearGradient22385);fill-opacity:1;stroke:#505050;stroke-width:1;stroke-miterlimit:4;stroke-dasharray:none;stroke-opacity:1" />
      </g>
      <g
         aria-label="CANopenTerm"
         id="text10947"
         style="font-weight:bold;font-size:17.6389px;line-height:1.25;font-family:Consolas;-inkscape-font-specification:'Consolas Bold';stroke:#ffffff;stroke-width:0.225"
         inkscape:label="CANopenTerm">
        <path
           d="m 60.209421,98.801335 q -0.749309,0.301446 -1.455554,0.447863 -0.697632,0.146417 -1.455554,0.146417 -1.214397,0 -2.153186,-0.353123 -0.930176,-0.361735 -1.576132,-1.06798 -0.637343,-0.706245 -0.97324,-1.748387 -0.327285,-1.050755 -0.327285,-2.437407 0,-1.421103 0.361736,-2.523534 0.361735,-1.111044 1.033529,-1.868966 0.671794,-0.766534 1.627809,-1.16272 0.964627,-0.404799 2.161799,-0.404799 0.387573,0 0.72347,0.01722 0.34451,0.01723 0.671794,0.0689 0.327284,0.04306 0.663182,0.120579 0.335897,0.07751 0.697632,0.198093 v 2.10151 q -0.732083,-0.34451 -1.395265,-0.490927 -0.663181,-0.146417 -1.205784,-0.146417 -0.800985,0 -1.369426,0.292834 -0.568442,0.28422 -0.93879,0.809598 -0.361735,0.516764 -0.53399,1.240235 -0.172255,0.714858 -0.172255,1.576132 0,0.912951 0.172255,1.636422 0.180868,0.714857 0.551216,1.214397 0.370348,0.499539 0.947402,0.766534 0.577054,0.258382 1.369426,0.258382 0.284221,0 0.611505,-0.05168 0.335897,-0.06029 0.671794,-0.146417 0.34451,-0.09474 0.671794,-0.215319 0.335897,-0.129191 0.620118,-0.258382 z"
           style="fill:#505050"
           id="path30351" />
        <path
           d="m 68.581009,99.240585 -0.620118,-2.222088 h -3.927412 l -0.637343,2.222088 h -2.101509 l 3.333132,-11.256857 h 2.962784 l 3.333132,11.256857 z m -2.557986,-9.189798 -1.481392,5.236549 h 2.945559 z"
           style="fill:#505050"
           id="path30353" />
        <path
           d="m 77.331557,99.240585 -3.014461,-6.71794 -0.620117,-1.446941 v 4.668107 3.496774 H 71.767724 V 87.983728 h 2.601049 l 3.07475,6.761005 0.542603,1.31775 v -4.969554 -3.109201 h 1.929254 v 11.256857 z"
           style="fill:#505050"
           id="path30355" />
        <path
           d="m 89.733909,94.796409 q 0,1.03353 -0.292833,1.894804 -0.292833,0.852662 -0.844049,1.464167 -0.551216,0.611504 -1.352201,0.947401 -0.800985,0.335897 -1.825902,0.335897 -0.97324,0 -1.739774,-0.28422 -0.766535,-0.284221 -1.300525,-0.844049 -0.53399,-0.568441 -0.81821,-1.41249 -0.284221,-0.852662 -0.284221,-1.980931 0,-1.042143 0.292833,-1.894804 0.301446,-0.852662 0.852662,-1.455554 0.559828,-0.602892 1.360814,-0.930176 0.800985,-0.335897 1.808676,-0.335897 0.981853,0 1.748387,0.292833 0.766534,0.28422 1.300525,0.852662 0.53399,0.568441 0.809598,1.41249 0.28422,0.835436 0.28422,1.937867 z m -2.187637,0.05168 q 0,-1.360814 -0.516765,-2.041221 -0.508152,-0.689019 -1.50723,-0.689019 -0.551216,0 -0.938789,0.215318 -0.387574,0.215319 -0.637343,0.59428 -0.24977,0.370348 -0.370348,0.869887 -0.111966,0.499539 -0.111966,1.06798 0,1.369426 0.551216,2.067059 0.551215,0.689019 1.50723,0.689019 0.525377,0 0.912951,-0.206706 0.387574,-0.215318 0.62873,-0.585666 0.241157,-0.378961 0.361736,-0.887113 0.120578,-0.508152 0.120578,-1.093818 z"
           style="fill:#505050"
           id="path30357" />
        <path
           d="m 99.423247,94.710282 q 0,1.205784 -0.34451,2.084284 -0.335897,0.8785 -0.947402,1.464166 -0.602892,0.577054 -1.429716,0.861275 -0.826823,0.275608 -1.800063,0.275608 -0.327284,0 -0.654569,-0.04306 -0.327284,-0.04306 -0.594279,-0.111966 v 3.419251 h -2.10151 V 90.490037 h 1.817289 l 0.05168,1.291912 q 0.266995,-0.335897 0.551215,-0.611505 0.292834,-0.275608 0.628731,-0.465088 0.335897,-0.198094 0.72347,-0.301447 0.387574,-0.103352 0.869888,-0.103352 0.775147,0 1.378039,0.310058 0.602892,0.310059 1.007691,0.887113 0.413412,0.568441 0.62873,1.386652 0.215319,0.809598 0.215319,1.825902 z m -2.204863,0.08613 q 0,-0.72347 -0.103353,-1.231622 -0.103353,-0.508152 -0.301446,-0.835437 -0.18948,-0.327284 -0.473701,-0.4737 -0.275608,-0.15503 -0.637343,-0.15503 -0.53399,0 -1.024916,0.430637 -0.482314,0.430638 -1.024917,1.171334 v 3.824058 q 0.24977,0.09474 0.611505,0.15503 0.370348,0.06029 0.749309,0.06029 0.499539,0 0.904338,-0.206706 0.413411,-0.206706 0.697632,-0.585667 0.292833,-0.37896 0.447863,-0.921563 0.155029,-0.551216 0.155029,-1.231624 z"
           style="fill:#505050"
           id="path30359" />
        <path
           d="m 108.87143,94.193517 q 0,0.215319 -0.0172,0.559828 -0.009,0.34451 -0.0345,0.645956 h -5.75331 q 0,0.577054 0.17225,1.016304 0.18087,0.43925 0.49954,0.740696 0.32729,0.292833 0.77515,0.447863 0.45648,0.155029 1.00769,0.155029 0.63734,0 1.36082,-0.09474 0.73208,-0.103353 1.51584,-0.327284 v 1.670872 q -0.3359,0.09474 -0.73208,0.172255 -0.39619,0.07752 -0.8096,0.137804 -0.41341,0.06029 -0.83544,0.08613 -0.42202,0.03445 -0.81821,0.03445 -0.99908,0 -1.79145,-0.28422 -0.79237,-0.284221 -1.34359,-0.835436 -0.55121,-0.559829 -0.84405,-1.378039 -0.29283,-0.818211 -0.29283,-1.894804 0,-1.067981 0.29283,-1.937868 0.29284,-0.8785 0.82683,-1.498617 0.53399,-0.628731 1.29191,-0.964628 0.76653,-0.344509 1.70532,-0.344509 0.93018,0 1.64504,0.292833 0.71485,0.28422 1.19717,0.800985 0.48231,0.516765 0.73208,1.231623 0.24977,0.714857 0.24977,1.567519 z m -2.13596,-0.301446 q 0.009,-0.516765 -0.12919,-0.895725 -0.13781,-0.387574 -0.37896,-0.637344 -0.23255,-0.249769 -0.55122,-0.370348 -0.31006,-0.120578 -0.67179,-0.120578 -0.79238,0 -1.30053,0.53399 -0.50815,0.525378 -0.60289,1.490005 z"
           style="fill:#505050"
           id="path30361" />
        <path
           d="m 116.16642,99.240585 v -5.701637 q 0,-1.438328 -1.06798,-1.438328 -0.53399,0 -1.02491,0.430637 -0.48232,0.430638 -1.02492,1.171334 v 5.537994 h -2.10151 v -8.750548 h 1.81729 l 0.0517,1.291912 q 0.267,-0.335897 0.55122,-0.611505 0.29283,-0.275608 0.62873,-0.465088 0.3359,-0.198094 0.72347,-0.301447 0.38757,-0.103352 0.86989,-0.103352 0.67179,0 1.17133,0.223931 0.49954,0.215318 0.83544,0.620117 0.33589,0.396187 0.49954,0.964628 0.17225,0.559828 0.17225,1.257461 v 5.873891 z"
           style="fill:#505050"
           id="path30363" />
        <path
           d="m 125.38206,89.749341 v 9.491244 h -2.17041 v -9.491244 h -3.08337 v -1.765613 h 8.33714 v 1.765613 z"
           style="fill:#505050"
           id="path30365" />
        <path
           d="m 137.96528,94.193517 q 0,0.215319 -0.0172,0.559828 -0.009,0.34451 -0.0344,0.645956 h -5.75331 q 0,0.577054 0.17225,1.016304 0.18087,0.43925 0.49954,0.740696 0.32729,0.292833 0.77515,0.447863 0.45648,0.155029 1.00769,0.155029 0.63734,0 1.36081,-0.09474 0.73209,-0.103353 1.51585,-0.327284 v 1.670872 q -0.3359,0.09474 -0.73209,0.172255 -0.39618,0.07752 -0.80959,0.137804 -0.41342,0.06029 -0.83544,0.08613 -0.42202,0.03445 -0.81821,0.03445 -0.99908,0 -1.79145,-0.28422 -0.79237,-0.284221 -1.34359,-0.835436 -0.55122,-0.559829 -0.84405,-1.378039 -0.29283,-0.818211 -0.29283,-1.894804 0,-1.067981 0.29283,-1.937868 0.29283,-0.8785 0.82682,-1.498617 0.534,-0.628731 1.29192,-0.964628 0.76653,-0.344509 1.70532,-0.344509 0.93018,0 1.64503,0.292833 0.71486,0.28422 1.19718,0.800985 0.48231,0.516765 0.73208,1.231623 0.24977,0.714857 0.24977,1.567519 z m -2.13596,-0.301446 q 0.009,-0.516765 -0.12919,-0.895725 -0.13781,-0.387574 -0.37896,-0.637344 -0.23255,-0.249769 -0.55122,-0.370348 -0.31006,-0.120578 -0.67179,-0.120578 -0.79238,0 -1.30053,0.53399 -0.50815,0.525378 -0.60289,1.490005 z"
           style="fill:#505050"
           id="path30367" />
        <path
           d="m 145.67369,93.892071 q 0.0172,-0.490926 -0.0517,-0.835436 -0.0603,-0.34451 -0.20671,-0.568441 -0.1378,-0.223932 -0.34451,-0.327285 -0.2067,-0.103353 -0.4737,-0.103353 -0.46508,0 -0.96462,0.387574 -0.49093,0.378961 -1.08521,1.257461 v 5.537994 h -2.15319 v -8.750548 h 1.90342 l 0.0775,1.274686 q 0.21531,-0.335897 0.48231,-0.602892 0.27561,-0.266995 0.60289,-0.456475 0.3359,-0.198094 0.7407,-0.301447 0.4048,-0.103352 0.88711,-0.103352 0.66318,0 1.17133,0.232544 0.51677,0.223931 0.86128,0.671794 0.35312,0.447862 0.51676,1.128269 0.17226,0.671794 0.14642,1.558907 z"
           style="fill:#505050"
           id="path30369" />
        <path
           d="m 155.91424,99.240585 v -5.960019 q 0,-0.327284 -0.0172,-0.568441 -0.0172,-0.24977 -0.0689,-0.413412 -0.0517,-0.163642 -0.15502,-0.241157 -0.0947,-0.08613 -0.267,-0.08613 -0.26699,0 -0.52538,0.361735 -0.25838,0.361735 -0.58566,1.231623 v 5.675798 h -1.80007 v -5.960019 q 0,-0.327284 -0.0172,-0.568441 -0.0172,-0.24977 -0.0689,-0.413412 -0.0517,-0.163642 -0.15503,-0.241157 -0.10336,-0.08613 -0.27561,-0.08613 -0.22393,0 -0.49954,0.361735 -0.27561,0.361735 -0.61151,1.231623 v 5.675798 h -1.81729 v -8.750548 h 1.55891 l 0.0344,1.274686 q 0.18948,-0.387573 0.37896,-0.663181 0.18948,-0.275608 0.4048,-0.447863 0.21532,-0.180868 0.45648,-0.258382 0.24977,-0.07752 0.55983,-0.07752 0.73208,0 1.11104,0.387574 0.38757,0.37896 0.43925,1.059367 0.20671,-0.387573 0.4048,-0.663181 0.2067,-0.275608 0.42202,-0.447863 0.22393,-0.180868 0.4737,-0.258382 0.25839,-0.07752 0.56845,-0.07752 0.95601,0 1.41249,0.671794 0.45647,0.663181 0.45647,1.972319 v 6.27869 z"
           style="fill:#505050"
           id="path30371" />
      </g>
    </g>
  </g>
</svg>
