<?xml version="1.0" encoding="UTF-8" standalone="no"?>
<!-- Created with Inkscape (http://www.inkscape.org/) -->

<svg
   width="63.277813mm"
   height="31.398651mm"
   viewBox="0 0 63.277813 31.398651"
   version="1.1"
   id="svg5"
   inkscape:version="1.3 (0e150ed6c4, 2023-07-21)"
   sodipodi:docname="logo.svg"
   xmlns:inkscape="http://www.inkscape.org/namespaces/inkscape"
   xmlns:sodipodi="http://sodipodi.sourceforge.net/DTD/sodipodi-0.dtd"
   xmlns:xlink="http://www.w3.org/1999/xlink"
   xmlns="http://www.w3.org/2000/svg"
   xmlns:svg="http://www.w3.org/2000/svg">
  <sodipodi:namedview
     id="namedview7"
     pagecolor="#ffffff"
     bordercolor="#666666"
     borderopacity="1.0"
     inkscape:pageshadow="2"
     inkscape:pageopacity="0.0"
     inkscape:pagecheckerboard="0"
     inkscape:document-units="mm"
     showgrid="false"
     fit-margin-top="0"
     fit-margin-left="0"
     fit-margin-right="0"
     fit-margin-bottom="0"
     inkscape:zoom="2.0737236"
     inkscape:cx="166.84962"
     inkscape:cy="57.625809"
     inkscape:window-width="1920"
     inkscape:window-height="1137"
     inkscape:window-x="1912"
     inkscape:window-y="-8"
     inkscape:window-maximized="1"
     inkscape:current-layer="svg5"
     inkscape:showpageshadow="2"
     inkscape:deskcolor="#d1d1d1" />
  <defs
     id="defs2">
    <linearGradient
       inkscape:collect="always"
       id="linearGradient8323">
      <stop
         style="stop-color:#f3f520;stop-opacity:1"
         offset="0"
         id="stop8319" />
      <stop
         style="stop-color:#59d102;stop-opacity:1"
         offset="1"
         id="stop8321" />
    </linearGradient>
    <linearGradient
       inkscape:collect="always"
       xlink:href="#linearGradient8323"
       id="linearGradient8325"
       x1="31.772163"
       y1="86.179771"
       x2="64.319183"
       y2="66.770172"
       gradientUnits="userSpaceOnUse"
       gradientTransform="translate(57.635862,-66.73347)" />
    <linearGradient
       inkscape:collect="always"
       xlink:href="#linearGradient8323"
       id="linearGradient841"
       gradientUnits="userSpaceOnUse"
       gradientTransform="translate(57.635862,-66.73347)"
       x1="31.772163"
       y1="86.179771"
       x2="64.319183"
       y2="66.770172" />
    <linearGradient
       inkscape:collect="always"
       xlink:href="#linearGradient8323"
       id="linearGradient843"
       gradientUnits="userSpaceOnUse"
       gradientTransform="translate(57.635862,-66.73347)"
       x1="31.772163"
       y1="86.179771"
       x2="64.319183"
       y2="66.770172" />
  </defs>
  <g
     aria-label="&lt;&gt;"
     id="text1508"
     style="font-weight:bold;font-size:35.2778px;line-height:1.25;font-family:Consolas;-inkscape-font-specification:'Consolas Bold';letter-spacing:-3.96875px;fill:url(#linearGradient8325);stroke-width:0.265"
     inkscape:label="logo"
     transform="translate(-73.561207)">
    <path
       d="M 100.95546,19.550929 89.345478,9.7668517 100.95546,-5.9604645e-7 103.64263,2.7216267 l -8.543839,7.010774 8.543839,7.0969013 z"
       id="path871"
       style="fill:url(#linearGradient841)" />
    <path
       d="M 109.04455,-5.9604645e-7 120.65453,9.7668517 109.04455,19.550929 106.3746,16.829302 114.90122,9.8013027 106.3746,2.7216267 Z"
       id="path873"
       style="fill:url(#linearGradient843)" />
  </g>
  <g
     aria-label="CANopenTerm"
     id="text6882"
     style="font-weight:bold;font-size:10.5833px;line-height:1.25;font-family:Consolas;-inkscape-font-specification:'Consolas Bold';fill:#505050;stroke-width:0.264583"
     inkscape:label="title"
     transform="translate(-73.361207,2.5)">
    <path
       d="m 78.125759,26.583556 q -0.449583,0.180867 -0.873329,0.268717 -0.418578,0.08785 -0.873329,0.08785 -0.728635,0 -1.291906,-0.211872 -0.558104,-0.217041 -0.945676,-0.640786 -0.382404,-0.423746 -0.583942,-1.049028 -0.19637,-0.630451 -0.19637,-1.462439 0,-0.852658 0.217041,-1.514114 0.21704,-0.666624 0.620115,-1.121375 0.403075,-0.459919 0.976681,-0.69763 Q 75.753818,20 76.472119,20 q 0.232543,0 0.43408,0.01034 0.206705,0.01033 0.403075,0.04134 0.19637,0.02584 0.397907,0.07235 0.201538,0.04651 0.418578,0.118855 v 1.260901 q -0.439248,-0.206705 -0.837155,-0.294555 -0.397908,-0.08785 -0.723468,-0.08785 -0.480589,0 -0.821653,0.175699 -0.341063,0.170532 -0.563271,0.485757 -0.21704,0.310057 -0.320393,0.744138 -0.103353,0.428913 -0.103353,0.945676 0,0.547768 0.103353,0.981849 0.10852,0.428913 0.330728,0.728635 0.222208,0.299723 0.568439,0.459919 0.346231,0.155029 0.821653,0.155029 0.170531,0 0.366901,-0.03101 0.201538,-0.03617 0.403075,-0.08785 0.206705,-0.05684 0.403075,-0.12919 0.201537,-0.07752 0.372069,-0.155029 z"
       id="path830" />
    <path
       d="m 83.148692,26.847105 -0.372069,-1.333248 h -2.356438 l -0.382404,1.333248 H 78.77688 l 1.999871,-6.754088 h 1.777664 l 1.999872,6.754088 z m -1.534785,-5.513858 -0.888832,3.141917 h 1.767329 z"
       id="path832" />
    <path
       d="m 88.399001,26.847105 -1.80867,-4.030749 -0.372069,-0.868161 v 2.800854 2.098056 h -1.157548 v -6.754088 h 1.560623 l 1.844843,4.056587 0.32556,0.790647 V 21.95853 20.093017 h 1.157549 v 6.754088 z"
       id="path834" />
    <path
       d="m 95.840382,24.18061 q 0,0.620115 -0.175699,1.136878 -0.1757,0.511595 -0.506428,0.878496 -0.330728,0.366902 -0.811317,0.568439 -0.480589,0.201537 -1.095537,0.201537 -0.583942,0 -1.043861,-0.170531 -0.459918,-0.170532 -0.780311,-0.506428 -0.320393,-0.341063 -0.490925,-0.84749 -0.170531,-0.511596 -0.170531,-1.188555 0,-0.625282 0.175699,-1.136878 0.180867,-0.511595 0.511595,-0.873328 0.335896,-0.361734 0.816485,-0.558104 0.480589,-0.201538 1.085202,-0.201538 0.589109,0 1.049028,0.1757 0.459919,0.170531 0.780311,0.511595 0.320393,0.341063 0.485757,0.847491 0.170532,0.501259 0.170532,1.162716 z m -1.312577,0.031 q 0,-0.816485 -0.310058,-1.224727 -0.30489,-0.41341 -0.904334,-0.41341 -0.330729,0 -0.563272,0.12919 -0.232543,0.129191 -0.382404,0.356567 -0.149861,0.222208 -0.222208,0.52193 -0.06718,0.299722 -0.06718,0.640786 0,0.821652 0.330728,1.24023 0.330728,0.41341 0.904335,0.41341 0.315225,0 0.547768,-0.124023 0.232543,-0.129191 0.377237,-0.351398 0.144693,-0.227376 0.21704,-0.532266 0.07235,-0.30489 0.07235,-0.656289 z"
       id="path836" />
    <path
       d="m 101.65396,24.128933 q 0,0.723468 -0.2067,1.250566 -0.20154,0.527098 -0.56844,0.878497 -0.36173,0.346231 -0.85783,0.516762 -0.496089,0.165364 -1.080031,0.165364 -0.19637,0 -0.39274,-0.02584 -0.19637,-0.02584 -0.356566,-0.06718 v 2.051548 h -1.260901 v -7.301857 h 1.090369 l 0.03101,0.775144 q 0.160196,-0.201537 0.330728,-0.366901 0.175699,-0.165364 0.377237,-0.279052 0.201537,-0.118856 0.434081,-0.180867 0.232543,-0.06201 0.52193,-0.06201 0.465083,0 0.826813,0.186035 0.36174,0.186035 0.60462,0.532266 0.24804,0.341063 0.37723,0.831987 0.12919,0.485757 0.12919,1.095538 z m -1.32291,0.05168 q 0,-0.434081 -0.062,-0.738971 -0.062,-0.30489 -0.18087,-0.50126 -0.113686,-0.19637 -0.284217,-0.284219 -0.165365,-0.09302 -0.382405,-0.09302 -0.320393,0 -0.614947,0.258382 -0.289388,0.258381 -0.614948,0.702797 v 2.294426 q 0.149861,0.05684 0.366901,0.09302 0.222208,0.03617 0.449584,0.03617 0.299722,0 0.542601,-0.124023 0.248046,-0.124023 0.418578,-0.351399 0.175703,-0.227375 0.268713,-0.552936 0.093,-0.330728 0.093,-0.73897 z"
       id="path838" />
    <path
       d="m 107.32285,23.818876 q 0,0.12919 -0.0103,0.335895 -0.005,0.206706 -0.0207,0.387572 h -3.45197 q 0,0.346231 0.10335,0.60978 0.10852,0.263549 0.29972,0.444416 0.19637,0.1757 0.46509,0.268717 0.27389,0.09302 0.60461,0.09302 0.38241,0 0.81649,-0.05684 0.43925,-0.06201 0.9095,-0.196369 v 1.002519 q -0.20154,0.05684 -0.43925,0.103353 -0.23771,0.04651 -0.48575,0.08268 -0.24805,0.03617 -0.50126,0.05168 -0.25322,0.02067 -0.49093,0.02067 -0.59944,0 -1.07487,-0.170531 -0.47542,-0.170532 -0.80614,-0.50126 -0.33073,-0.335896 -0.50643,-0.82682 -0.1757,-0.490925 -0.1757,-1.136878 0,-0.640786 0.1757,-1.162716 0.1757,-0.527098 0.49609,-0.899167 0.32039,-0.377237 0.77514,-0.578774 0.45992,-0.206706 1.02319,-0.206706 0.55811,0 0.98702,0.1757 0.42891,0.170531 0.7183,0.480589 0.28939,0.310058 0.43925,0.738971 0.14986,0.428913 0.14986,0.940508 z m -1.28157,-0.180867 q 0.005,-0.310058 -0.0775,-0.537433 -0.0827,-0.232544 -0.22737,-0.382405 -0.13953,-0.149861 -0.33073,-0.222208 -0.18603,-0.07235 -0.40307,-0.07235 -0.47543,0 -0.78032,0.320392 -0.30489,0.315226 -0.36173,0.894 z"
       id="path840" />
    <path
       d="m 111.69983,26.847105 v -3.420969 q 0,-0.862994 -0.64079,-0.862994 -0.32039,0 -0.61495,0.258382 -0.28938,0.258381 -0.61494,0.702797 v 3.322784 h -1.2609 v -5.250309 h 1.09036 l 0.031,0.775144 q 0.1602,-0.201537 0.33073,-0.366901 0.1757,-0.165364 0.37724,-0.279052 0.20153,-0.118856 0.43408,-0.180867 0.23254,-0.06201 0.52193,-0.06201 0.40307,0 0.70279,0.134359 0.29973,0.12919 0.50126,0.372069 0.20154,0.237711 0.29973,0.578774 0.10335,0.335896 0.10335,0.754474 v 3.524321 z"
       id="path842" />
    <path
       d="m 117.22919,21.15238 v 5.694725 h -1.30224 V 21.15238 h -1.85001 v -1.059363 h 5.00226 v 1.059363 z"
       id="path844" />
    <path
       d="m 124.77909,23.818876 q 0,0.12919 -0.0103,0.335895 -0.005,0.206706 -0.0207,0.387572 h -3.45198 q 0,0.346231 0.10335,0.60978 0.10852,0.263549 0.29973,0.444416 0.19637,0.1757 0.46508,0.268717 0.27389,0.09302 0.60462,0.09302 0.3824,0 0.81648,-0.05684 0.43925,-0.06201 0.9095,-0.196369 v 1.002519 q -0.20154,0.05684 -0.43925,0.103353 -0.23771,0.04651 -0.48575,0.08268 -0.24805,0.03617 -0.50126,0.05168 -0.25322,0.02067 -0.49093,0.02067 -0.59944,0 -1.07486,-0.170531 -0.47543,-0.170532 -0.80615,-0.50126 -0.33073,-0.335896 -0.50643,-0.82682 -0.1757,-0.490925 -0.1757,-1.136878 0,-0.640786 0.1757,-1.162716 0.1757,-0.527098 0.49609,-0.899167 0.32039,-0.377237 0.77515,-0.578774 0.45991,-0.206706 1.02319,-0.206706 0.5581,0 0.98701,0.1757 0.42892,0.170531 0.7183,0.480589 0.28939,0.310058 0.43925,0.738971 0.14986,0.428913 0.14986,0.940508 z m -1.28157,-0.180867 q 0.005,-0.310058 -0.0775,-0.537433 -0.0827,-0.232544 -0.22738,-0.382405 -0.13953,-0.149861 -0.33073,-0.222208 -0.18603,-0.07235 -0.40307,-0.07235 -0.47542,0 -0.78031,0.320392 -0.30489,0.315226 -0.36174,0.894 z"
       id="path846" />
    <path
       d="m 129.40412,23.638009 q 0.0103,-0.294555 -0.031,-0.50126 -0.0362,-0.206705 -0.12402,-0.341063 -0.0827,-0.134359 -0.20671,-0.19637 -0.12402,-0.06201 -0.28421,-0.06201 -0.27906,0 -0.57878,0.232544 -0.29455,0.227375 -0.65112,0.754473 v 3.322784 h -1.29191 v -5.250309 h 1.14205 l 0.0465,0.764809 q 0.12919,-0.201537 0.28938,-0.361734 0.16537,-0.160196 0.36174,-0.273884 0.20154,-0.118856 0.44441,-0.180867 0.24288,-0.06201 0.53227,-0.06201 0.39791,0 0.7028,0.139526 0.31005,0.134359 0.51676,0.403075 0.21187,0.268717 0.31006,0.676959 0.10335,0.403075 0.0879,0.935341 z"
       id="path848" />
    <path
       d="m 135.54843,26.847105 v -3.575998 q 0,-0.19637 -0.0103,-0.341063 -0.0103,-0.149861 -0.0413,-0.248046 -0.031,-0.09819 -0.093,-0.144694 -0.0568,-0.05168 -0.16019,-0.05168 -0.1602,0 -0.31523,0.21704 -0.15503,0.217041 -0.3514,0.738971 v 3.405466 h -1.08003 v -3.575998 q 0,-0.19637 -0.0103,-0.341063 -0.0103,-0.149861 -0.0413,-0.248046 -0.031,-0.09819 -0.093,-0.144694 -0.062,-0.05168 -0.16537,-0.05168 -0.13436,0 -0.29972,0.21704 -0.16536,0.217041 -0.3669,0.738971 v 3.405466 h -1.09037 v -5.250309 h 0.93534 l 0.0207,0.764809 q 0.11369,-0.232543 0.22738,-0.397907 0.11368,-0.165364 0.24287,-0.268717 0.12919,-0.10852 0.27389,-0.155029 0.14986,-0.04651 0.33589,-0.04651 0.43925,0 0.66663,0.232543 0.23254,0.227375 0.26355,0.635618 0.12402,-0.232543 0.24288,-0.397907 0.12402,-0.165364 0.25321,-0.268717 0.13436,-0.10852 0.28422,-0.155029 0.15503,-0.04651 0.34106,-0.04651 0.57361,0 0.84749,0.403075 0.27389,0.397907 0.27389,1.183386 v 3.7672 z"
       id="path850" />
  </g>
</svg>
