<?xml version="1.0" encoding="UTF-8" standalone="no"?>
<!-- Created with Inkscape (http://www.inkscape.org/) -->

<svg
   width="155.15167mm"
   height="77.56263mm"
   viewBox="0 0 206.8689 103.41684"
   version="1.1"
   id="svg1"
   inkscape:version="1.3 (0e150ed6c4, 2023-07-21)"
   sodipodi:docname="logo.svg"
   xmlns:inkscape="http://www.inkscape.org/namespaces/inkscape"
   xmlns:sodipodi="http://sodipodi.sourceforge.net/DTD/sodipodi-0.dtd"
   xmlns:xlink="http://www.w3.org/1999/xlink"
   xmlns="http://www.w3.org/2000/svg"
   xmlns:svg="http://www.w3.org/2000/svg">
  <sodipodi:namedview
     id="namedview1"
     pagecolor="#ffffff"
     bordercolor="#000000"
     borderopacity="0.25"
     inkscape:showpageshadow="2"
     inkscape:pageopacity="0.0"
     inkscape:pagecheckerboard="0"
     inkscape:deskcolor="#d1d1d1"
     inkscape:document-units="mm"
     inkscape:zoom="0.40043841"
     inkscape:cx="998.90517"
     inkscape:cy="1042.6073"
     inkscape:window-width="1920"
     inkscape:window-height="1137"
     inkscape:window-x="1912"
     inkscape:window-y="-8"
     inkscape:window-maximized="1"
     inkscape:current-layer="layer1" />
  <defs
     id="defs1">
    <linearGradient
       inkscape:collect="always"
       xlink:href="#linearGradient8323"
       id="linearGradient8325"
       x1="31.772163"
       y1="86.179771"
       x2="64.319183"
       y2="66.770172"
       gradientUnits="userSpaceOnUse"
       gradientTransform="translate(57.635862,-66.73347)" />
    <linearGradient
       inkscape:collect="always"
       id="linearGradient8323">
      <stop
         style="stop-color:#f3f520;stop-opacity:1"
         offset="0"
         id="stop8319" />
      <stop
         style="stop-color:#59d102;stop-opacity:1"
         offset="1"
         id="stop8321" />
    </linearGradient>
    <linearGradient
       inkscape:collect="always"
       xlink:href="#linearGradient8323"
       id="linearGradient2"
       gradientUnits="userSpaceOnUse"
       gradientTransform="translate(57.635862,-66.73347)"
       x1="31.772163"
       y1="86.179771"
       x2="64.319183"
       y2="66.770172" />
    <linearGradient
       inkscape:collect="always"
       xlink:href="#linearGradient8323"
       id="linearGradient3"
       gradientUnits="userSpaceOnUse"
       gradientTransform="translate(57.635862,-66.73347)"
       x1="31.772163"
       y1="86.179771"
       x2="64.319183"
       y2="66.770172" />
  </defs>
  <g
     inkscape:label="Layer 1"
     inkscape:groupmode="layer"
     id="layer1"
     transform="translate(-1.5655479,-29.805465)">
    <g
       id="g2">
      <g
         id="g1">
        <path
           d="m 16.911392,99.843955 v -2.928057 c -0.317501,0 -0.635001,0 -0.952501,0 -3.633614,0 -6.42056,0.564444 -8.3255612,1.728612 -3.9511138,2.39889 -6.0677819,6.06778 -6.0677819,10.58334 0,4.51556 2.1166681,8.21973 6.0677819,10.61862 1.9050012,1.16417 4.6919472,1.72861 8.3255612,1.72861 0.3175,0 0.635,0 0.952501,0 v -2.96333 c -0.423334,0.0353 -0.81139,0.0353 -1.199446,0.0353 -6.8086154,0 -10.795007,-3.73944 -10.795007,-9.41917 0,-5.67973 3.9863916,-9.419173 10.795007,-9.419173 0.388056,0 0.776112,0 1.199446,0.03528 z m 16.933317,21.731125 h 3.280835 v -15.48695 c 0,-6.03251 -3.52778,-9.595566 -8.572506,-9.595566 -5.044725,0 -8.572505,3.563056 -8.572505,9.595566 v 15.48695 h 3.280835 v -15.4164 c 0,-4.37445 1.940279,-6.632225 5.29167,-6.632225 3.351391,0 5.291671,2.257775 5.291671,6.632225 v 0.98778 h -9.595562 v 3.10445 h 9.595562 z m 10.653909,0 v -20.70807 l 8.925284,18.5914 c 0.776112,1.65806 1.799168,2.46945 3.069169,2.46945 1.587501,0 2.610557,-1.27 2.610557,-3.59834 V 96.915898 H 55.963904 V 117.55341 L 47.073898,99.103121 c -0.81139,-1.658056 -1.76389,-2.469446 -2.998613,-2.469446 -1.693335,0 -2.681113,1.234723 -2.681113,3.598335 v 21.34307 z m 17.921096,-8.46667 c 0,2.36361 0.881945,4.55083 2.540001,6.24417 1.622779,1.65806 3.704169,2.54 5.997227,2.54 2.293057,0 4.409725,-0.88194 6.032504,-2.54 1.622778,-1.65806 2.504724,-3.88056 2.504724,-6.24417 0,-2.36361 -0.881946,-4.55084 -2.504724,-6.20889 -1.622779,-1.65806 -3.739447,-2.54001 -6.032504,-2.54001 -2.293058,0 -4.374448,0.88195 -5.997227,2.54001 -1.658056,1.69333 -2.540001,3.84528 -2.540001,6.20889 z m 3.139724,-0.0353 c 0,-3.31611 2.434168,-5.85611 5.397504,-5.85611 2.963335,0 5.397503,2.54 5.397503,5.85611 0,3.31611 -2.434168,5.89139 -5.397503,5.89139 -2.963336,0 -5.397504,-2.57528 -5.397504,-5.89139 z m 16.792256,16.01612 h 3.033891 v -15.94556 c 0,-3.59834 2.257779,-5.92667 5.397504,-5.92667 3.139724,0 5.468059,2.36361 5.468059,5.82083 0,3.52778 -2.363613,5.96195 -5.573893,5.96195 -1.446389,0 -2.857502,-0.49389 -4.268614,-1.55222 v 3.24556 c 1.375835,0.77611 2.89278,1.16416 4.586115,1.16416 2.257779,0 4.48028,-0.9525 6.032504,-2.68111 1.481667,-1.62278 2.293057,-3.77472 2.293057,-6.06778 0,-5.11528 -3.598336,-8.7489 -8.466673,-8.7489 -3.316113,0 -6.173615,1.72862 -7.584727,4.58612 -0.846667,1.72861 -0.917223,3.4925 -0.917223,5.53861 z m 36.124476,-14.99306 -3.06917,-0.45861 c -0.49389,3.35139 -2.61055,5.32694 -5.43278,5.32694 -2.96333,0 -5.3975,-2.54 -5.3975,-5.89139 0,-3.38667 2.39889,-5.89139 5.3975,-5.89139 1.48167,0 2.75167,0.56444 3.77473,1.69333 l -8.21973,4.58612 1.27,2.29305 11.07723,-6.13833 c -1.69333,-3.45723 -4.48028,-5.29167 -7.86695,-5.29167 -2.32833,0 -4.445,0.91722 -6.06778,2.57528 -1.62278,1.69333 -2.50473,3.84528 -2.50473,6.20889 0,3.175 1.55223,5.96195 4.26862,7.62 1.27,0.77612 2.75167,1.19945 4.26861,1.19945 4.30389,0 7.65529,-2.92806 8.50195,-7.83167 z m 2.8575,7.47889 h 2.99861 v -9.77195 c 0,-2.71639 1.79917,-4.51556 4.19806,-4.51556 2.39889,0 4.16278,1.79917 4.16278,4.51556 v 9.77195 h 2.99861 v -9.20751 c 0,-5.11528 -2.96333,-8.00806 -7.16139,-8.00806 -4.19806,0 -7.19667,2.89278 -7.19667,8.00806 z m 23.10693,0 h 3.28084 V 99.949789 h 6.31472 v -3.033891 h -15.91029 v 3.033891 h 6.31473 z m 25.99968,-7.47889 -3.06917,-0.45861 c -0.49388,3.35139 -2.61055,5.32694 -5.43278,5.32694 -2.96333,0 -5.3975,-2.54 -5.3975,-5.89139 0,-3.38667 2.39889,-5.89139 5.3975,-5.89139 1.48167,0 2.75167,0.56444 3.77473,1.69333 l -8.21973,4.58612 1.27,2.29305 11.07723,-6.13833 c -1.69333,-3.45723 -4.48028,-5.29167 -7.86695,-5.29167 -2.32833,0 -4.445,0.91722 -6.06778,2.57528 -1.62278,1.69333 -2.50472,3.84528 -2.50472,6.20889 0,3.175 1.55222,5.96195 4.26861,7.62 1.27,0.77612 2.75167,1.19945 4.26861,1.19945 4.3039,0 7.65529,-2.92806 8.50195,-7.83167 z m 3.06918,7.47889 h 3.03389 v -7.97278 c 0,-4.40973 1.69333,-6.31473 5.89139,-6.31473 0.14111,0 0.3175,0 0.45861,0 v -2.92806 c -0.28222,0 -0.52916,0 -0.77611,0 -2.92806,0 -4.72722,0.74084 -5.82083,2.82223 v -2.50473 h -2.78695 z m 11.21831,0 h 2.99861 v -10.33639 c 0,-2.3989 1.51695,-3.95112 3.66889,-3.95112 2.15195,0 3.70417,1.55222 3.70417,3.95112 v 10.33639 h 2.99862 v -10.33639 c 0,-2.3989 1.51694,-3.95112 3.66889,-3.95112 2.15194,0 3.66889,1.55222 3.66889,3.95112 v 10.33639 h 2.99861 v -9.77195 c 0,-4.72723 -2.75167,-7.44362 -6.6675,-7.44362 -2.08139,0 -3.84528,0.88195 -5.18584,2.61056 -1.27,-1.69333 -3.06917,-2.61056 -5.18584,-2.61056 -3.91583,0 -6.6675,2.68112 -6.6675,7.44362 z"
           id="text1"
           style="font-weight:500;font-size:35.2778px;font-family:'ITC Bauhaus';-inkscape-font-specification:'ITC Bauhaus Medium';stroke-width:0.999"
           aria-label="CANopenTerm" />
        <path
           d="m 97.031782,131.34377 h 0.820208 v -3.87174 c 0,-1.50812 -0.881944,-2.39889 -2.143124,-2.39889 -1.26118,0 -2.143124,0.89077 -2.143124,2.39889 v 3.87174 h 0.820208 v -3.8541 c 0,-1.09361 0.485069,-1.65805 1.322916,-1.65805 0.837847,0 1.322916,0.56444 1.322916,1.65805 v 0.24694 h -2.398888 v 0.77612 h 2.398888 z m 1.78153,0 h 0.749653 v -2.44299 c 0,-0.6791 0.449795,-1.12889 1.049515,-1.12889 0.59972,0 1.04069,0.44979 1.04069,1.12889 v 2.44299 h 0.74965 v -2.30188 c 0,-1.27882 -0.74083,-2.00201 -1.79034,-2.00201 -1.049515,0 -1.799168,0.72319 -1.799168,2.00201 z m 7.805198,0 h 0.75847 v -1.77271 c 0,-0.51153 -0.009,-0.9525 -0.2293,-1.38465 -0.3616,-0.71438 -1.07598,-1.14653 -1.88736,-1.14653 -1.21709,0 -2.11667,0.9084 -2.11667,2.18722 0,0.75847 0.32632,1.41111 0.93486,1.83444 0.3175,0.22049 0.73201,0.35278 1.13771,0.35278 0.42333,0 0.80257,-0.097 1.14653,-0.29104 v -0.81139 c -0.35278,0.26458 -0.69674,0.38806 -1.05834,0.38806 -0.80257,0 -1.39347,-0.60855 -1.39347,-1.49049 0,-0.8643 0.57326,-1.45521 1.35819,-1.45521 0.78493,0 1.34938,0.58209 1.34938,1.48167 z m 1.72861,0 h 0.75847 v -6.16479 h -0.75847 z m 5.32695,-4.22452 h -0.74966 v 2.44299 c 0,0.6791 -0.44097,1.12889 -1.04069,1.12889 -0.59972,0 -1.04951,-0.44979 -1.04951,-1.12889 v -2.44299 h -0.74965 v 2.30188 c 0,1.08479 0.45861,1.72861 1.41111,1.96673 v 1.83445 h 0.75847 v -1.83445 c 0.9525,-0.23812 1.41993,-0.88194 1.41993,-1.96673 z m 3.13971,0 h -2.31069 v 0.71438 h 2.20486 l -2.06375,2.35479 c -0.19403,0.22048 -0.30868,0.39687 -0.30868,0.5909 0,0.3616 0.26458,0.56445 0.74965,0.56445 h 2.53118 v -0.7232 h -2.39889 l 2.13431,-2.43416 c 0.16756,-0.18521 0.24694,-0.3616 0.24694,-0.54681 0,-0.33514 -0.25576,-0.52035 -0.78493,-0.52035 z m 5.52979,2.35479 -0.76729,-0.11465 c -0.12348,0.83785 -0.65264,1.33174 -1.3582,1.33174 -0.74083,0 -1.34937,-0.635 -1.34937,-1.47285 0,-0.84667 0.59972,-1.47285 1.34937,-1.47285 0.37042,0 0.68792,0.14111 0.94368,0.42334 l -2.05493,1.14652 0.3175,0.57327 2.76931,-1.53458 c -0.42334,-0.86431 -1.12007,-1.32292 -1.96674,-1.32292 -0.58208,0 -1.11125,0.2293 -1.51694,0.64382 -0.4057,0.42333 -0.62618,0.96132 -0.62618,1.55222 0,0.79375 0.38805,1.49049 1.06715,1.905 0.3175,0.19403 0.68792,0.29986 1.06715,0.29986 1.07597,0 1.91382,-0.73201 2.12549,-1.95792 z m 0.75847,2.75167 h 0.67909 l 0.45861,-1.71097 h -0.76729 z m 4.60374,-0.88194 h 1.94909 c 1.33174,0 2.03729,-0.62618 2.03729,-1.64042 0,-0.68792 -0.37041,-1.19062 -1.15534,-1.5875 l -0.89959,-0.45861 c -0.68791,-0.35278 -1.05833,-0.55563 -1.05833,-1.01424 0,-0.38805 0.29104,-0.65263 0.76729,-0.65263 h 2.05493 v -0.81139 h -1.78153 c -1.20826,0 -1.88736,0.59972 -1.88736,1.49048 0,0.65264 0.37042,1.14653 1.12007,1.52577 l 1.03188,0.52916 c 0.64382,0.32632 0.9525,0.57327 0.9525,1.02306 0,0.5027 -0.34396,0.77611 -1.02306,0.77611 h -2.10784 z m 4.76249,-5.42396 c 0,0.25576 0.20284,0.46743 0.45861,0.46743 0.25576,0 0.45861,-0.20285 0.45861,-0.46743 0,-0.25576 -0.19403,-0.45861 -0.45861,-0.45861 -0.25577,0 -0.45861,0.20285 -0.45861,0.45861 z m 0.0794,5.42396 h 0.75847 v -4.22452 h -0.75847 z m 1.73744,0 h 0.74965 v -2.5841 c 0,-0.59972 0.37923,-0.98778 0.91722,-0.98778 0.53799,0 0.92604,0.38806 0.92604,0.98778 v 2.5841 h 0.74965 v -2.5841 c 0,-0.59972 0.37924,-0.98778 0.91723,-0.98778 0.53798,0 0.91722,0.38806 0.91722,0.98778 v 2.5841 h 0.74965 v -2.44299 c 0,-1.1818 -0.68792,-1.8609 -1.66687,-1.8609 -0.52035,0 -0.96132,0.22048 -1.29646,0.65264 -0.3175,-0.42334 -0.76729,-0.65264 -1.29646,-0.65264 -0.97896,0 -1.66687,0.67028 -1.66687,1.8609 z m 10.44222,-4.22452 h -0.74966 v 2.44299 c 0,0.6791 -0.44097,1.12889 -1.04069,1.12889 -0.59972,0 -1.04951,-0.44979 -1.04951,-1.12889 v -2.44299 h -0.74966 v 2.30188 c 0,1.27882 0.74084,2.00201 1.79035,2.00201 1.04951,0 1.79917,-0.72319 1.79917,-2.00201 z m 0.98777,4.22452 h 0.75847 v -6.16479 h -0.75847 z m 5.02708,0 h 0.75847 v -1.77271 c 0,-0.51153 -0.009,-0.9525 -0.2293,-1.38465 -0.3616,-0.71438 -1.07597,-1.14653 -1.88736,-1.14653 -1.21709,0 -2.11667,0.9084 -2.11667,2.18722 0,0.75847 0.32632,1.41111 0.93486,1.83444 0.3175,0.22049 0.73202,0.35278 1.13771,0.35278 0.42333,0 0.80257,-0.097 1.14653,-0.29104 v -0.81139 c -0.35278,0.26458 -0.69674,0.38806 -1.05834,0.38806 -0.80256,0 -1.39347,-0.60855 -1.39347,-1.49049 0,-0.8643 0.57327,-1.45521 1.3582,-1.45521 0.78493,0 1.34937,0.58209 1.34937,1.48167 z m 1.6757,-5.34459 v 3.77472 c 0,1.04952 0.59972,1.56987 1.79034,1.56987 h 0.24695 v -0.7232 h -0.23813 c -0.72319,0 -1.04069,-0.29986 -1.04069,-0.97896 v -1.80798 h 1.27882 v -0.71438 h -1.27882 v -1.12007 z m 6.83507,3.47486 -0.76729,-0.11465 c -0.12347,0.83785 -0.65264,1.33174 -1.3582,1.33174 -0.74083,0 -1.34937,-0.635 -1.34937,-1.47285 0,-0.84667 0.59972,-1.47285 1.34937,-1.47285 0.37042,0 0.68792,0.14111 0.94368,0.42334 l -2.05493,1.14652 0.3175,0.57327 2.76931,-1.53458 c -0.42333,-0.86431 -1.12007,-1.32292 -1.96674,-1.32292 -0.58208,0 -1.11125,0.2293 -1.51694,0.64382 -0.40569,0.42333 -0.62618,0.96132 -0.62618,1.55222 0,0.79375 0.38805,1.49049 1.06715,1.905 0.3175,0.19403 0.68792,0.29986 1.06715,0.29986 1.07598,0 1.91382,-0.73201 2.12549,-1.95792 z m 0.75847,2.75167 h 0.6791 l 0.45861,-1.71097 h -0.76729 z m 8.2638,-0.88194 h 0.82021 v -3.87174 c 0,-1.50812 -0.88195,-2.39889 -2.14313,-2.39889 -1.26118,0 -2.14312,0.89077 -2.14312,2.39889 v 3.87174 h 0.82021 v -3.8541 c 0,-1.09361 0.48507,-1.65805 1.32291,-1.65805 0.83785,0 1.32292,0.56444 1.32292,1.65805 v 0.24694 h -2.39889 v 0.77612 h 2.39889 z m 5.37105,-4.22452 h -0.74966 v 2.44299 c 0,0.6791 -0.44097,1.12889 -1.04069,1.12889 -0.59972,0 -1.04951,-0.44979 -1.04951,-1.12889 v -2.44299 h -0.74966 v 2.30188 c 0,1.27882 0.74084,2.00201 1.79035,2.00201 1.04951,0 1.79917,-0.72319 1.79917,-2.00201 z m 0.93485,-1.12007 v 3.77472 c 0,1.04952 0.59972,1.56987 1.79034,1.56987 h 0.24695 v -0.7232 h -0.23813 c -0.72319,0 -1.04069,-0.29986 -1.04069,-0.97896 v -1.80798 h 1.27882 v -0.71438 h -1.27882 v -1.12007 z m 2.57528,3.22792 c 0,0.5909 0.22048,1.13771 0.635,1.56104 0.40569,0.41451 0.92604,0.635 1.4993,0.635 0.57327,0 1.10243,-0.22049 1.50813,-0.635 0.40569,-0.41451 0.62618,-0.97014 0.62618,-1.56104 0,-0.5909 -0.22049,-1.13771 -0.62618,-1.55222 -0.4057,-0.41452 -0.93486,-0.635 -1.50813,-0.635 -0.57326,0 -1.09361,0.22048 -1.4993,0.635 -0.41452,0.42333 -0.635,0.96132 -0.635,1.55222 z m 0.78493,-0.009 c 0,-0.82903 0.60854,-1.46403 1.34937,-1.46403 0.74084,0 1.34938,0.635 1.34938,1.46403 0,0.82903 -0.60854,1.47285 -1.34938,1.47285 -0.74083,0 -1.34937,-0.64382 -1.34937,-1.47285 z m 4.20688,2.12549 h 0.74965 v -2.5841 c 0,-0.59972 0.37924,-0.98778 0.91722,-0.98778 0.53799,0 0.92604,0.38806 0.92604,0.98778 v 2.5841 h 0.74966 v -2.5841 c 0,-0.59972 0.37923,-0.98778 0.91722,-0.98778 0.53798,0 0.91722,0.38806 0.91722,0.98778 v 2.5841 h 0.74965 v -2.44299 c 0,-1.1818 -0.68791,-1.8609 -1.66687,-1.8609 -0.52035,0 -0.96132,0.22048 -1.29646,0.65264 -0.3175,-0.42334 -0.76729,-0.65264 -1.29646,-0.65264 -0.97896,0 -1.66687,0.67028 -1.66687,1.8609 z m 10.14236,0 h 0.75847 v -1.77271 c 0,-0.51153 -0.009,-0.9525 -0.22931,-1.38465 -0.36159,-0.71438 -1.07597,-1.14653 -1.88736,-1.14653 -1.21708,0 -2.11666,0.9084 -2.11666,2.18722 0,0.75847 0.32632,1.41111 0.93486,1.83444 0.3175,0.22049 0.73201,0.35278 1.13771,0.35278 0.42333,0 0.80256,-0.097 1.14652,-0.29104 v -0.81139 c -0.35277,0.26458 -0.69673,0.38806 -1.05833,0.38806 -0.80257,0 -1.39347,-0.60855 -1.39347,-1.49049 0,-0.8643 0.57326,-1.45521 1.35819,-1.45521 0.78493,0 1.34938,0.58209 1.34938,1.48167 z m 1.67569,-5.34459 v 3.77472 c 0,1.04952 0.59972,1.56987 1.79035,1.56987 h 0.24694 v -0.7232 h -0.23812 c -0.7232,0 -1.0407,-0.29986 -1.0407,-0.97896 v -1.80798 h 1.27882 v -0.71438 h -1.27882 V 125.999 Z m 6.83507,3.47486 -0.76729,-0.11465 c -0.12347,0.83785 -0.65264,1.33174 -1.35819,1.33174 -0.74083,0 -1.34937,-0.635 -1.34937,-1.47285 0,-0.84667 0.59972,-1.47285 1.34937,-1.47285 0.37042,0 0.68792,0.14111 0.94368,0.42334 l -2.05493,1.14652 0.3175,0.57327 2.7693,-1.53458 c -0.42333,-0.86431 -1.12006,-1.32292 -1.96673,-1.32292 -0.58208,0 -1.11125,0.2293 -1.51694,0.64382 -0.4057,0.42333 -0.62619,0.96132 -0.62619,1.55222 0,0.79375 0.38806,1.49049 1.06716,1.905 0.3175,0.19403 0.68791,0.29986 1.06715,0.29986 1.07597,0 1.91382,-0.73201 2.12548,-1.95792 z"
           id="text2"
           style="font-weight:500;font-size:8.81944px;font-family:'ITC Bauhaus';-inkscape-font-specification:'ITC Bauhaus Medium';stroke-width:0.999"
           aria-label="Analyze, Simulate, Automate" />
      </g>
      <g
         aria-label="&lt;&gt;"
         id="text1508"
         style="font-weight:bold;font-size:35.2778px;line-height:1.25;font-family:Consolas;-inkscape-font-specification:'Consolas Bold';letter-spacing:-3.96875px;fill:url(#linearGradient8325);stroke-width:0.265"
         inkscape:label="logo"
         transform="matrix(3.1384284,0,0,3.1384285,-224.53499,29.805467)">
        <path
           d="M 100.95546,19.550929 89.345478,9.7668517 100.95546,-5.9604645e-7 103.64263,2.7216267 l -8.543839,7.010774 8.543839,7.0969013 z"
           id="path871"
           style="fill:url(#linearGradient2)" />
        <path
           d="M 109.04455,-5.9604645e-7 120.65453,9.7668517 109.04455,19.550929 106.3746,16.829302 114.90122,9.8013027 106.3746,2.7216267 Z"
           id="path873"
           style="fill:url(#linearGradient3)" />
      </g>
    </g>
  </g>
</svg>
