<?xml version="1.0" encoding="UTF-8" standalone="no"?>
<!-- Created with Inkscape (http://www.inkscape.org/) -->

<svg
   width="250"
   height="275"
   viewBox="0 0 66.145833 72.760417"
   version="1.1"
   id="svg133"
   inkscape:version="1.4 (86a8ad7, 2024-10-11)"
   sodipodi:docname="diversity-2019.svg"
   xmlns:inkscape="http://www.inkscape.org/namespaces/inkscape"
   xmlns:sodipodi="http://sodipodi.sourceforge.net/DTD/sodipodi-0.dtd"
   xmlns="http://www.w3.org/2000/svg"
   xmlns:svg="http://www.w3.org/2000/svg"
   xmlns:rdf="http://www.w3.org/1999/02/22-rdf-syntax-ns#"
   xmlns:cc="http://creativecommons.org/ns#"
   xmlns:dc="http://purl.org/dc/elements/1.1/">
  <title
     id="title66">Debian Diversity</title>
  <defs
     id="defs127" />
  <sodipodi:namedview
     id="base"
     pagecolor="#ffffff"
     bordercolor="#666666"
     borderopacity="1.0"
     inkscape:pageopacity="0.0"
     inkscape:pageshadow="2"
     inkscape:zoom="0.35355339"
     inkscape:cx="-304.05592"
     inkscape:cy="291.32799"
     inkscape:document-units="mm"
     inkscape:current-layer="layer1"
     showgrid="false"
     inkscape:window-width="1920"
     inkscape:window-height="1177"
     inkscape:window-x="-8"
     inkscape:window-y="-8"
     inkscape:window-maximized="1"
     inkscape:snap-global="false"
     inkscape:showpageshadow="2"
     inkscape:pagecheckerboard="0"
     inkscape:deskcolor="#d1d1d1" />
  <metadata
     id="metadata130">
    <rdf:RDF>
      <cc:Work
         rdf:about="">
        <dc:format>image/svg+xml</dc:format>
        <dc:type
           rdf:resource="http://purl.org/dc/dcmitype/StillImage" />
        <dc:title>Debian Diversity</dc:title>
        <cc:license
           rdf:resource="http://artlibre.org/licence/lal" />
        <dc:creator>
          <cc:Agent>
            <dc:title>Debian Diversity Team</dc:title>
          </cc:Agent>
        </dc:creator>
        <dc:rights>
          <cc:Agent>
            <dc:title>GPLv3</dc:title>
          </cc:Agent>
        </dc:rights>
      </cc:Work>
      <cc:License
         rdf:about="http://artlibre.org/licence/lal">
        <cc:permits
           rdf:resource="http://creativecommons.org/ns#Reproduction" />
        <cc:permits
           rdf:resource="http://creativecommons.org/ns#Distribution" />
        <cc:permits
           rdf:resource="http://creativecommons.org/ns#DerivativeWorks" />
        <cc:requires
           rdf:resource="http://creativecommons.org/ns#ShareAlike" />
        <cc:requires
           rdf:resource="http://creativecommons.org/ns#Notice" />
        <cc:requires
           rdf:resource="http://creativecommons.org/ns#Attribution" />
      </cc:License>
    </rdf:RDF>
  </metadata>
  <g
     inkscape:label="Camada 1"
     inkscape:groupmode="layer"
     id="layer1"
     transform="translate(-76.367174,-116.89409)">
    <path
       style="color:#000000;font-style:normal;font-variant:normal;font-weight:normal;font-stretch:normal;font-size:medium;line-height:normal;font-family:sans-serif;text-indent:0;text-align:start;text-decoration:none;text-decoration-line:none;text-decoration-style:solid;text-decoration-color:#000000;letter-spacing:normal;word-spacing:normal;text-transform:none;writing-mode:lr-tb;direction:ltr;baseline-shift:baseline;text-anchor:start;white-space:normal;clip-rule:nonzero;display:inline;overflow:visible;visibility:visible;isolation:auto;mix-blend-mode:normal;color-interpolation:sRGB;color-interpolation-filters:linearRGB;solid-color:#000000;solid-opacity:1;vector-effect:none;fill:#c22edc;fill-opacity:1;fill-rule:nonzero;stroke:none;stroke-width:2.96147;stroke-linecap:square;stroke-linejoin:bevel;stroke-miterlimit:4;stroke-dasharray:none;stroke-dashoffset:0;stroke-opacity:1;color-rendering:auto;image-rendering:auto;shape-rendering:auto;text-rendering:auto;enable-background:accumulate"
       d="m 112.87263,142.18338 c -0.68144,-0.0661 -1.37094,-0.0458 -2.0506,0.0632 -1.35929,0.21784 -2.64686,0.78481 -3.72577,1.63978 -1.07907,0.85503 -1.9999,2.02133 -2.52264,3.29473 -0.21288,0.40761 -0.40858,0.81522 -0.50834,1.22283 l 2.59518,1.03884 0.51907,-1.26506 c 0.34205,-0.83323 0.90969,-1.58849 1.6155,-2.14775 h 6.4e-4 c 0.70582,-0.55932 1.57014,-0.93935 2.45933,-1.08186 0.88929,-0.14249 1.82927,-0.0512 2.67445,0.25954 0.84533,0.31075 1.62021,0.84977 2.20535,1.5343 0.90662,1.06051 1.37956,2.54433 1.25326,3.93396 -0.12634,1.38971 -0.85863,2.76416 -1.94165,3.64389 l -1.06243,0.86257 1.72514,2.12346 1.06173,-0.86257 c 1.67594,-1.36135 2.74613,-3.36921 2.94162,-5.51961 0.19544,-2.15028 -0.49489,-4.3177 -1.89793,-5.95888 -0.89446,-1.04641 -2.04911,-1.84968 -3.34133,-2.32471 -0.64604,-0.23751 -1.3192,-0.39051 -2.00063,-0.45661 z"
       id="path4460"
       inkscape:connector-curvature="0"
       sodipodi:nodetypes="cccccccccccccccccccccc" />
    <path
       style="color:#000000;font-style:normal;font-variant:normal;font-weight:normal;font-stretch:normal;font-size:medium;line-height:normal;font-family:sans-serif;text-indent:0;text-align:start;text-decoration:none;text-decoration-line:none;text-decoration-style:solid;text-decoration-color:#000000;letter-spacing:normal;word-spacing:normal;text-transform:none;writing-mode:lr-tb;direction:ltr;baseline-shift:baseline;text-anchor:start;white-space:normal;clip-rule:nonzero;display:inline;overflow:visible;visibility:visible;isolation:auto;mix-blend-mode:normal;color-interpolation:sRGB;color-interpolation-filters:linearRGB;solid-color:#000000;solid-opacity:1;fill:#000000;fill-opacity:1;fill-rule:nonzero;stroke:none;stroke-width:2.96147;stroke-linecap:square;stroke-linejoin:bevel;stroke-miterlimit:4;stroke-dasharray:none;stroke-dashoffset:0;stroke-opacity:1;color-rendering:auto;image-rendering:auto;shape-rendering:auto;text-rendering:auto;enable-background:accumulate"
       d="m 127.67649,126.6023 -1.74319,2.1082 1.0548,0.87159 c 2.37695,1.96469 4.33952,4.44132 5.70906,7.2045 2.07355,4.18432 2.77523,9.0583 2.04018,13.68662 -0.77253,4.86141 -3.13283,9.48386 -6.61742,12.96074 l -0.96806,0.96598 1.93194,1.93678 0.96874,-0.96596 c 3.90348,-3.89484 6.52093,-9.0222 7.38632,-14.46799 0.82357,-5.18573 0.0477,-10.61182 -2.2907,-15.33057 v -7e-4 c -1.54206,-3.11124 -3.74118,-5.8854 -6.41758,-8.09759 l -1.05409,-0.87159 z"
       id="path4454"
       inkscape:connector-curvature="0" />
    <path
       style="color:#000000;font-style:normal;font-variant:normal;font-weight:normal;font-stretch:normal;font-size:medium;line-height:normal;font-family:sans-serif;text-indent:0;text-align:start;text-decoration:none;text-decoration-line:none;text-decoration-style:solid;text-decoration-color:#000000;letter-spacing:normal;word-spacing:normal;text-transform:none;writing-mode:lr-tb;direction:ltr;baseline-shift:baseline;text-anchor:start;white-space:normal;clip-rule:nonzero;display:inline;overflow:visible;visibility:visible;isolation:auto;mix-blend-mode:normal;color-interpolation:sRGB;color-interpolation-filters:linearRGB;solid-color:#000000;solid-opacity:1;vector-effect:none;fill:#fe0000;fill-opacity:1;fill-rule:nonzero;stroke:none;stroke-width:2.96147;stroke-linecap:square;stroke-linejoin:bevel;stroke-miterlimit:4;stroke-dasharray:none;stroke-dashoffset:0;stroke-opacity:1;color-rendering:auto;image-rendering:auto;shape-rendering:auto;text-rendering:auto;enable-background:accumulate"
       d="m 102.74386,175.96377 -1.36915,2.36912 1.18456,0.68422 c 3.87441,2.23883 8.067,3.9212 12.41461,4.98112 3.81495,0.93009 7.74487,1.38041 11.67141,1.33792 l 1.36776,-0.0146 -0.0291,-2.73622 -1.36777,0.0153 c -3.69745,0.04 -7.4018,-0.38508 -10.99411,-1.26089 -4.09357,-0.99797 -8.04635,-2.58377 -11.69431,-4.69174 l -1.18386,-0.68423 z"
       id="path4456"
       inkscape:connector-curvature="0" />
    <path
       sodipodi:nodetypes="cccccccccccccccccccc"
       style="color:#000000;font-style:normal;font-variant:normal;font-weight:normal;font-stretch:normal;font-size:medium;line-height:normal;font-family:sans-serif;text-indent:0;text-align:start;text-decoration:none;text-decoration-line:none;text-decoration-style:solid;text-decoration-color:#000000;letter-spacing:normal;word-spacing:normal;text-transform:none;writing-mode:lr-tb;direction:ltr;baseline-shift:baseline;text-anchor:start;white-space:normal;clip-rule:nonzero;display:inline;overflow:visible;visibility:visible;isolation:auto;mix-blend-mode:normal;color-interpolation:sRGB;color-interpolation-filters:linearRGB;solid-color:#000000;solid-opacity:1;fill:#0644b3;fill-opacity:1;fill-rule:nonzero;stroke:none;stroke-width:2.96147;stroke-linecap:square;stroke-linejoin:bevel;stroke-miterlimit:4;stroke-dasharray:none;stroke-dashoffset:0;stroke-opacity:1;color-rendering:auto;image-rendering:auto;shape-rendering:auto;text-rendering:auto;enable-background:accumulate"
       d="m 108.38838,125.16168 c -1.73588,-0.0957 -3.48323,0.0242 -5.19207,0.36293 -4.590597,0.90993 -8.76371,3.36877 -11.967032,6.70487 -3.231221,3.36539 -5.245134,7.65716 -6.502926,11.99548 l -0.034,0.14642 c -2.529015,14.05939 0.657373,26.5365 10.874072,35.35702 l 1.035363,0.8938 1.788286,-2.07072 -1.035364,-0.8938 c -9.444768,-8.15409 -12.270981,-19.4382 -9.976106,-32.74364 1.175014,-4.02218 3.024848,-7.87376 5.824253,-10.78941 2.844522,-2.96229 6.550249,-5.12868 10.525014,-5.91654 2.9599,-0.58668 6.0807,-0.41454 8.95809,0.49408 2.90863,0.91853 5.75676,2.5332 7.80754,4.67647 l 0.94515,0.98818 1.97704,-1.89099 -0.94584,-0.98818 c -2.44396,-2.55418 -5.66956,-4.35484 -8.96018,-5.39401 -1.66121,-0.52457 -3.38542,-0.83622 -5.12129,-0.93196 z"
       id="path4458"
       inkscape:connector-curvature="0" />
    <path
       sodipodi:nodetypes="ssccccsccccccccs"
       style="color:#000000;font-style:normal;font-variant:normal;font-weight:normal;font-stretch:normal;font-size:medium;line-height:normal;font-family:sans-serif;text-indent:0;text-align:start;text-decoration:none;text-decoration-line:none;text-decoration-style:solid;text-decoration-color:#000000;letter-spacing:normal;word-spacing:normal;text-transform:none;writing-mode:lr-tb;direction:ltr;baseline-shift:baseline;text-anchor:start;white-space:normal;clip-rule:nonzero;display:inline;overflow:visible;visibility:visible;isolation:auto;mix-blend-mode:normal;color-interpolation:sRGB;color-interpolation-filters:linearRGB;solid-color:#000000;solid-opacity:1;vector-effect:none;fill:#fe0000;fill-opacity:1;fill-rule:nonzero;stroke:none;stroke-width:2.96147;stroke-linecap:square;stroke-linejoin:bevel;stroke-miterlimit:4;stroke-dasharray:none;stroke-dashoffset:0;stroke-opacity:1;color-rendering:auto;image-rendering:auto;shape-rendering:auto;text-rendering:auto;enable-background:accumulate"
       d="m 106.85893,122.99034 c -2.47203,0.037 -4.93877,0.42923 -7.301654,1.17484 -4.725766,1.49122 -8.980066,4.37889 -12.110671,8.22043 l -0.86396,1.06035 2.269053,1.72861 0.765049,-1.06034 c 2.786531,-3.41934 6.557805,-6.01248 10.764233,-7.33983 4.20642,-1.32734 8.82232,-1.39649 13.06692,-0.19569 4.84589,1.37068 9.23175,4.42098 12.20297,8.4876 2.94022,4.02427 4.16516,9.10644 3.99641,14.20499 l -0.0458,1.36707 2.73483,0.0902 0.0451,-1.36707 c 0.1852,-5.59521 -1.14978,-11.29414 -4.52172,-15.90931 -3.34107,-4.57281 -8.21795,-7.96496 -13.66718,-9.5063 -2.3843,-0.67452 -4.86155,-0.99259 -7.33358,-0.95556 z"
       id="path4462"
       inkscape:connector-curvature="0" />
    <path
       style="color:#000000;font-style:normal;font-variant:normal;font-weight:normal;font-stretch:normal;font-size:medium;line-height:normal;font-family:sans-serif;text-indent:0;text-align:start;text-decoration:none;text-decoration-line:none;text-decoration-style:solid;text-decoration-color:#000000;letter-spacing:normal;word-spacing:normal;text-transform:none;writing-mode:lr-tb;direction:ltr;baseline-shift:baseline;text-anchor:start;white-space:normal;clip-rule:nonzero;display:inline;overflow:visible;visibility:visible;isolation:auto;mix-blend-mode:normal;color-interpolation:sRGB;color-interpolation-filters:linearRGB;solid-color:#000000;solid-opacity:1;fill:#784f17;fill-opacity:1;fill-rule:nonzero;stroke:none;stroke-width:2.96147;stroke-linecap:square;stroke-linejoin:bevel;stroke-miterlimit:4;stroke-dasharray:none;stroke-dashoffset:0;stroke-opacity:1;color-rendering:auto;image-rendering:auto;shape-rendering:auto;text-rendering:auto;enable-background:accumulate"
       d="m 108.64444,120.20138 -0.37403,2.70985 1.35526,0.18667 c 3.26434,0.45055 6.45229,1.48223 9.36197,3.02905 4.20932,2.23762 7.84478,5.5924 10.23148,9.67494 2.3839,4.07775 3.50743,8.92133 2.98187,13.57767 -0.50341,4.45964 -2.55699,8.77459 -5.80135,11.81643 -3.18312,2.98428 -7.62318,4.2571 -12.11901,4.0436 -5.09135,-0.2419 -9.91371,-2.61147 -12.52773,-6.827 l -0.721,-1.16304 -2.324702,1.44201 0.721005,1.16235 c 3.162277,5.09968 8.865867,7.84016 14.722667,8.11842 5.09651,0.24203 10.29698,-1.19672 14.11964,-4.78056 h 6.4e-4 c 3.76132,-3.52655 6.07479,-8.42182 6.64864,-13.50549 0.59755,-5.29415 -0.66883,-10.69868 -3.33855,-15.26533 -2.66692,-4.56186 -6.67794,-8.24734 -11.30986,-10.70961 -3.19548,-1.69875 -6.68663,-2.82846 -10.27173,-3.32328 z"
       id="path4464"
       inkscape:connector-curvature="0" />
    <path
       style="color:#000000;font-style:normal;font-variant:normal;font-weight:normal;font-stretch:normal;font-size:medium;line-height:normal;font-family:sans-serif;text-indent:0;text-align:start;text-decoration:none;text-decoration-line:none;text-decoration-style:solid;text-decoration-color:#000000;letter-spacing:normal;word-spacing:normal;text-transform:none;writing-mode:lr-tb;direction:ltr;baseline-shift:baseline;text-anchor:start;white-space:normal;clip-rule:nonzero;display:inline;overflow:visible;visibility:visible;isolation:auto;mix-blend-mode:normal;color-interpolation:sRGB;color-interpolation-filters:linearRGB;solid-color:#000000;solid-opacity:1;fill:#ff8b00;fill-opacity:1;fill-rule:nonzero;stroke:none;stroke-width:2.96147;stroke-linecap:square;stroke-linejoin:bevel;stroke-miterlimit:4;stroke-dasharray:none;stroke-dashoffset:0;stroke-opacity:1;color-rendering:auto;image-rendering:auto;shape-rendering:auto;text-rendering:auto;enable-background:accumulate"
       d="m 104.99014,139.56375 -1.10336,0.80914 c -1.8686,1.3708 -3.44659,3.59843 -4.355872,5.85756 -0.909471,2.25941 -1.167164,4.75723 -0.737662,7.15454 0.538347,3.00557 2.132234,5.73147 4.335744,7.77491 2.19853,2.03892 4.95382,3.37647 7.83599,4.00336 5.09955,1.10909 10.59078,-0.0468 14.81011,-3.11788 l 1.10614,-0.80497 -1.60994,-2.2116 -1.10615,0.80497 c -3.56312,2.5935 -8.31202,3.59306 -12.61864,2.65641 -2.44375,-0.53152 -4.76009,-1.66933 -6.55774,-3.33647 -1.79253,-1.66231 -3.07974,-3.89173 -3.50232,-6.25102 -0.33717,-1.88191 -0.13175,-3.87705 0.58221,-5.65077 0.714,-1.77393 2.16879,-3.74309 3.4364,-4.673 l 1.10336,-0.80914 z"
       id="path4466"
       inkscape:connector-curvature="0" />
    <path
       style="color:#000000;font-style:normal;font-variant:normal;font-weight:normal;font-stretch:normal;font-size:medium;line-height:normal;font-family:sans-serif;text-indent:0;text-align:start;text-decoration:none;text-decoration-line:none;text-decoration-style:solid;text-decoration-color:#000000;letter-spacing:normal;word-spacing:normal;text-transform:none;writing-mode:lr-tb;direction:ltr;baseline-shift:baseline;text-anchor:start;white-space:normal;clip-rule:nonzero;display:inline;overflow:visible;visibility:visible;isolation:auto;mix-blend-mode:normal;color-interpolation:sRGB;color-interpolation-filters:linearRGB;solid-color:#000000;solid-opacity:1;fill:#ffed00;fill-opacity:1;fill-rule:nonzero;stroke:none;stroke-width:2.96147;stroke-linecap:square;stroke-linejoin:bevel;stroke-miterlimit:4;stroke-dasharray:none;stroke-dashoffset:0;stroke-opacity:1;color-rendering:auto;image-rendering:auto;shape-rendering:auto;text-rendering:auto;enable-background:accumulate"
       d="m 112.37438,139.91697 c -2.22143,-0.10298 -4.44603,0.48705 -6.32459,1.67725 -1.83743,1.16426 -3.29597,2.87083 -4.1685,4.85829 h 7e-4 c -0.87236,1.98677 -1.14065,4.20745 -0.77999,6.34193 0.52899,3.13054 2.4086,5.95007 5.09492,7.64238 l 1.1575,0.72933 1.45797,-2.31498 -1.1575,-0.72864 c -2.00154,-1.26093 -3.46137,-3.4514 -3.85552,-5.78401 -0.27078,-1.60253 -0.0644,-3.30233 0.58708,-4.78612 0.65119,-1.48329 1.76336,-2.78293 3.12759,-3.64735 1.39373,-0.88303 3.09674,-1.55706 4.7448,-1.48066 2.14205,0.0993 3.41947,0.5323 4.68373,1.50826 l 1.08256,0.8355 1.51076,-1.9505 -1.08255,-0.8362 c -1.80204,-1.3912 -3.94571,-1.96557 -6.07879,-2.06448 z"
       id="path4468"
       inkscape:connector-curvature="0"
       sodipodi:nodetypes="ccccccccccccccccccc" />
    <path
       style="color:#000000;font-style:normal;font-variant:normal;font-weight:normal;font-stretch:normal;font-size:medium;line-height:normal;font-family:sans-serif;text-indent:0;text-align:start;text-decoration:none;text-decoration-line:none;text-decoration-style:solid;text-decoration-color:#000000;letter-spacing:normal;word-spacing:normal;text-transform:none;writing-mode:lr-tb;direction:ltr;baseline-shift:baseline;text-anchor:start;white-space:normal;clip-rule:nonzero;display:inline;overflow:visible;visibility:visible;isolation:auto;mix-blend-mode:normal;color-interpolation:sRGB;color-interpolation-filters:linearRGB;solid-color:#000000;solid-opacity:1;vector-effect:none;fill:#c22edc;fill-opacity:1;fill-rule:nonzero;stroke:none;stroke-width:2.96147;stroke-linecap:square;stroke-linejoin:bevel;stroke-miterlimit:4;stroke-dasharray:none;stroke-dashoffset:0;stroke-opacity:1;color-rendering:auto;image-rendering:auto;shape-rendering:auto;text-rendering:auto;enable-background:accumulate"
       d="m 92.039802,134.37029 -0.716842,1.16513 c -4.259519,6.92505 -5.915403,15.36759 -4.587649,23.38861 1.511688,9.13069 6.929482,17.54743 14.764999,22.51494 4.04557,2.56459 8.66553,4.19947 13.42361,4.75072 l 1.35874,0.15753 0.31435,-2.71748 -1.35874,-0.15752 c -4.34395,-0.50328 -8.57951,-2.00264 -12.27305,-4.34408 -7.132292,-4.52168 -12.14718,-12.29633 -13.530475,-20.65031 v -6.5e-4 c -1.216685,-7.35103 0.31478,-15.16139 4.218472,-21.50795 l 0.716842,-1.16513 z"
       id="path4470"
       inkscape:connector-curvature="0" />
    <path
       sodipodi:nodetypes="ccccccccsccc"
       style="color:#000000;font-style:normal;font-variant:normal;font-weight:normal;font-stretch:normal;font-size:medium;line-height:normal;font-family:sans-serif;text-indent:0;text-align:start;text-decoration:none;text-decoration-line:none;text-decoration-style:solid;text-decoration-color:#000000;letter-spacing:normal;word-spacing:normal;text-transform:none;writing-mode:lr-tb;direction:ltr;baseline-shift:baseline;text-anchor:start;white-space:normal;clip-rule:nonzero;display:inline;overflow:visible;visibility:visible;isolation:auto;mix-blend-mode:normal;color-interpolation:sRGB;color-interpolation-filters:linearRGB;solid-color:#000000;solid-opacity:1;vector-effect:none;fill:#119f0b;fill-opacity:1;fill-rule:nonzero;stroke:none;stroke-width:2.96147;stroke-linecap:square;stroke-linejoin:bevel;stroke-miterlimit:4;stroke-dasharray:none;stroke-dashoffset:0;stroke-opacity:1;color-rendering:auto;image-rendering:auto;shape-rendering:auto;text-rendering:auto;enable-background:accumulate"
       d="m 83.446722,139.7865 -0.417751,1.30323 c -1.901897,5.93438 -2.391755,12.30429 -1.419808,18.45954 0.630511,3.99315 1.8692,7.88642 3.661932,11.50972 l 0.606504,1.2255 2.452392,-1.21301 -0.606504,-1.2262 c -1.669367,-3.37395 -2.825015,-7.00454 -3.41211,-10.72279 -0.222319,-1.40792 -0.352417,-2.82923 -0.410831,-4.25428 -0.179201,-4.37197 0.39952,-8.77922 1.734174,-12.94367 l 0.417059,-1.30253 z"
       id="path4472"
       inkscape:connector-curvature="0" />
  </g>
</svg>
