<?xml version="1.0" encoding="UTF-8" standalone="no"?>
<svg
   version="1.1"
   id="Layer_1"
   width="325"
   height="275"
   sodipodi:docname="oe-logo-2009.svg"
   inkscape:version="1.4 (86a8ad7, 2024-10-11)"
   xmlns:inkscape="http://www.inkscape.org/namespaces/inkscape"
   xmlns:sodipodi="http://sodipodi.sourceforge.net/DTD/sodipodi-0.dtd"
   xmlns:xlink="http://www.w3.org/1999/xlink"
   xmlns="http://www.w3.org/2000/svg"
   xmlns:svg="http://www.w3.org/2000/svg">
  <defs
     id="defs1" />
  <sodipodi:namedview
     id="namedview1"
     pagecolor="#ffffff"
     bordercolor="#000000"
     borderopacity="0.25"
     inkscape:showpageshadow="2"
     inkscape:pageopacity="0.0"
     inkscape:pagecheckerboard="0"
     inkscape:deskcolor="#d1d1d1"
     showgrid="false"
     inkscape:zoom="2.1475481"
     inkscape:cx="140.85831"
     inkscape:cy="177.41162"
     inkscape:window-width="1920"
     inkscape:window-height="1177"
     inkscape:window-x="-8"
     inkscape:window-y="-8"
     inkscape:window-maximized="1"
     inkscape:current-layer="Layer_1" />
  <g
     fill="#00bce4"
     id="g18"
     transform="matrix(1.4893585,0,0,1.4893585,6.7857071,12.500003)">
    <path
       d="m 74.145,145.897 c -0.568,0.568 -0.841,1.228 -0.841,2.03 v 0.339 h 5.744 v -0.339 c 0,-1.601 -1.273,-2.87 -2.872,-2.872 -0.804,0.001 -1.463,0.275 -2.031,0.842 z m -0.841,8.365 c 0,0.876 0.729,1.605 1.605,1.605 h 6.334 c 1.357,0 2.195,0.838 2.195,2.194 0,1.357 -0.838,2.195 -2.195,2.195 h -6.334 c -1.657,0 -3.101,-0.58 -4.265,-1.73 -1.15,-1.163 -1.731,-2.607 -1.731,-4.265 v -6.334 c 0,-4.041 3.221,-7.261 7.262,-7.263 2.019,0 3.752,0.705 5.148,2.115 1.41,1.396 2.114,3.13 2.114,5.147 v 4.729 H 73.304 Z"
       id="path2" />
    <path
       d="m 99.738,140.665 c 1.662,0 3.094,0.584 4.246,1.75 1.166,1.153 1.749,2.584 1.75,4.246 v 11.4 c 0,1.357 -0.838,2.195 -2.195,2.195 -1.357,0 -2.195,-0.838 -2.195,-2.195 v -11.4 c 0,-0.922 -0.684,-1.604 -1.605,-1.605 h -1.604 v 13.006 c 0,1.357 -0.838,2.195 -2.195,2.195 -1.357,0 -2.195,-0.838 -2.195,-2.195 v -13.006 h -3.21 v 13.006 c 0,1.357 -0.838,2.195 -2.195,2.195 -1.357,0 -2.195,-0.838 -2.195,-2.195 V 142.86 c 0,-1.357 0.838,-2.195 2.195,-2.195 z"
       id="path4" />
    <use
       xlink:href="#path10"
       transform="matrix(-1,0,0,1,266.202,0)"
       id="use6" />
    <use
       xlink:href="#path2"
       transform="translate(56.752)"
       id="use8" />
    <path
       d="m 142.894,154.262 c 0,3.37 2.625,5.995 5.995,5.995 h 6.334 c 1.356,0 2.194,-0.838 2.194,-2.195 V 135.26 c 0,-1.356 -0.838,-2.195 -2.194,-2.195 -1.357,0 -2.195,0.839 -2.195,2.195 v 5.405 h -4.139 c -3.472,0 -5.993,2.658 -5.995,5.995 z m 10.134,1.606 h -4.139 c -0.903,0 -1.604,-0.701 -1.604,-1.605 v -7.601 c 0,-0.927 0.678,-1.604 1.605,-1.605 h 4.138 z"
       id="path10" />
    <use
       xlink:href="#path10"
       transform="translate(17.229)"
       id="use12" />
    <use
       xlink:href="#path2"
       transform="translate(108.4365)"
       id="use14" />
    <use
       xlink:href="#path10"
       transform="translate(51.6855)"
       id="use16" />
  </g>
  <g
     fill="#5c6f7b"
     id="g28"
     transform="matrix(1.4893585,0,0,1.4893585,6.7857071,12.500003)">
    <use
       xlink:href="#path10"
       transform="rotate(180,87.32275,150.46125)"
       id="use20" />
    <use
       xlink:href="#path2"
       transform="translate(-34.4565)"
       id="use22" />
    <path
       d="m 51.685,142.86 c 0,-1.357 0.838,-2.195 2.195,-2.195 h 6.334 c 1.662,0 3.094,0.584 4.246,1.75 1.167,1.153 1.749,2.584 1.75,4.246 v 11.4 c 0,1.357 -0.838,2.195 -2.195,2.195 -1.357,0 -2.195,-0.838 -2.195,-2.195 v -11.4 c 0,-0.922 -0.684,-1.604 -1.605,-1.605 h -4.138 v 13.006 c 0,1.357 -0.838,2.195 -2.195,2.195 -1.357,0 -2.195,-0.838 -2.195,-2.195 V 142.86 Z"
       id="path24" />
    <path
       d="m 10.134,147.928 c 0,-1.601 -1.273,-2.87 -2.872,-2.872 -1.599,0 -2.872,1.273 -2.872,2.872 v 5.067 c 0,0.824 0.267,1.485 0.822,2.049 0.564,0.555 1.226,0.823 2.05,0.823 1.601,0 2.871,-1.273 2.872,-2.873 z m -10.134,0 c 0,-4.041 3.22,-7.261 7.262,-7.263 2.019,0 3.752,0.705 5.148,2.115 1.411,1.396 2.114,3.13 2.114,5.147 v 5.067 c 0,4.041 -3.222,7.262 -7.262,7.262 -1.997,0 -3.732,-0.713 -5.147,-2.114 C 0.713,156.727 0,154.991 0,152.995 Z"
       id="path26" />
  </g>
  <path
     fill="#5c6f7b"
     d="m 44.657115,130.344 c 0,-65.084961 52.760525,-117.843997 117.844005,-117.843997 65.08347,0 117.84251,52.759036 117.84251,117.843997 0,22.24804 -6.16446,43.05587 -16.8789,60.80753 H 224.1963 c 15.41784,-15.63826 24.92889,-37.11183 24.92889,-60.80753 0,-47.842658 -38.78141,-86.625553 -86.62407,-86.625553 -47.84267,0 -86.625561,38.782895 -86.625561,86.625553 0,23.6957 9.514022,45.16927 24.928881,60.80753 H 61.536015 C 50.823059,173.39838 44.657115,152.59204 44.657115,130.344 Z"
     id="path30"
     style="stroke-width:1.48936" />
  <path
     fill="#00bce4"
     d="m 146.96711,130.344 c 0,-4.29233 1.73957,-8.17806 4.55595,-10.98997 l 25.96845,-26.054839 c -14.41997,-5.82786 -31.55057,-2.895313 -43.24055,8.794659 -15.60251,15.60252 -15.60251,40.89928 0,56.5018 15.60252,15.60401 40.89928,15.60401 56.50329,0 6.77211,-6.77212 10.60423,-15.37167 11.49933,-24.21102 l 27.49356,-27.49504 c 8.69488,24.9825 3.06212,53.8418 -16.89677,73.80218 -27.80632,27.80632 -72.88772,27.80632 -100.69404,0 -27.806322,-27.80632 -27.806322,-72.88623 0,-100.69255 27.80484,-27.806324 72.88772,-27.806324 100.69404,0 3.77552,3.777013 7.04169,7.874238 9.79104,12.202314 L 173.51343,141.3459 c -2.81191,2.81488 -6.71849,4.53509 -11.01082,4.53509 -8.58169,-0.003 -15.5355,-6.95828 -15.5355,-15.53699 z"
     id="path32"
     style="stroke-width:1.48936" />
</svg>
