<?xml version="1.0" encoding="UTF-8" standalone="no"?>
<svg xmlns:svg="http://www.w3.org/2000/svg" xmlns="http://www.w3.org/2000/svg" xmlns:xlink="http://www.w3.org/1999/xlink" version="1.1" id="Layer_1" width="209.104px" height="167.858px">
  <g fill="#00bce4" id="g18">
    <path d="m 74.145,145.897 c -0.568,0.568 -0.841,1.228 -0.841,2.03 v 0.339 h 5.744 v -0.339 c 0,-1.601 -1.273,-2.87 -2.872,-2.872 -0.804,0.001 -1.463,0.275 -2.031,0.842 z m -0.841,8.365 c 0,0.876 0.729,1.605 1.605,1.605 h 6.334 c 1.357,0 2.195,0.838 2.195,2.194 0,1.357 -0.838,2.195 -2.195,2.195 h -6.334 c -1.657,0 -3.101,-0.58 -4.265,-1.73 -1.15,-1.163 -1.731,-2.607 -1.731,-4.265 v -6.334 c 0,-4.041 3.221,-7.261 7.262,-7.263 2.019,0 3.752,0.705 5.148,2.115 1.41,1.396 2.114,3.13 2.114,5.147 v 4.729 H 73.304 Z" id="path2"/>
    <path d="m 99.738,140.665 c 1.662,0 3.094,0.584 4.246,1.75 1.166,1.153 1.749,2.584 1.75,4.246 v 11.4 c 0,1.357 -0.838,2.195 -2.195,2.195 -1.357,0 -2.195,-0.838 -2.195,-2.195 v -11.4 c 0,-0.922 -0.684,-1.604 -1.605,-1.605 h -1.604 v 13.006 c 0,1.357 -0.838,2.195 -2.195,2.195 -1.357,0 -2.195,-0.838 -2.195,-2.195 v -13.006 h -3.21 v 13.006 c 0,1.357 -0.838,2.195 -2.195,2.195 -1.357,0 -2.195,-0.838 -2.195,-2.195 V 142.86 c 0,-1.357 0.838,-2.195 2.195,-2.195 z" id="path4"/>
    <use xlink:href="#path10" transform="matrix(-1,0,0,1,266.202,0)" id="use6"/>
    <use xlink:href="#path2" transform="translate(56.752)" id="use8"/>
    <path d="m 142.894,154.262 c 0,3.37 2.625,5.995 5.995,5.995 h 6.334 c 1.356,0 2.194,-0.838 2.194,-2.195 V 135.26 c 0,-1.356 -0.838,-2.195 -2.194,-2.195 -1.357,0 -2.195,0.839 -2.195,2.195 v 5.405 h -4.139 c -3.472,0 -5.993,2.658 -5.995,5.995 z m 10.134,1.606 h -4.139 c -0.903,0 -1.604,-0.701 -1.604,-1.605 v -7.601 c 0,-0.927 0.678,-1.604 1.605,-1.605 h 4.138 z" id="path10"/>
    <use xlink:href="#path10" transform="translate(17.229)" id="use12"/>
    <use xlink:href="#path2" transform="translate(108.4365)" id="use14"/>
    <use xlink:href="#path10" transform="translate(51.6855)" id="use16"/>
  </g>
  <g fill="#5c6f7b" id="g28">
    <use xlink:href="#path10" transform="rotate(180,87.32275,150.46125)" id="use20"/>
    <use xlink:href="#path2" transform="translate(-34.4565)" id="use22"/>
    <path d="m 51.685,142.86 c 0,-1.357 0.838,-2.195 2.195,-2.195 h 6.334 c 1.662,0 3.094,0.584 4.246,1.75 1.167,1.153 1.749,2.584 1.75,4.246 v 11.4 c 0,1.357 -0.838,2.195 -2.195,2.195 -1.357,0 -2.195,-0.838 -2.195,-2.195 v -11.4 c 0,-0.922 -0.684,-1.604 -1.605,-1.605 h -4.138 v 13.006 c 0,1.357 -0.838,2.195 -2.195,2.195 -1.357,0 -2.195,-0.838 -2.195,-2.195 V 142.86 Z" id="path24"/>
    <path d="m 10.134,147.928 c 0,-1.601 -1.273,-2.87 -2.872,-2.872 -1.599,0 -2.872,1.273 -2.872,2.872 v 5.067 c 0,0.824 0.267,1.485 0.822,2.049 0.564,0.555 1.226,0.823 2.05,0.823 1.601,0 2.871,-1.273 2.872,-2.873 z m -10.134,0 c 0,-4.041 3.22,-7.261 7.262,-7.263 2.019,0 3.752,0.705 5.148,2.115 1.411,1.396 2.114,3.13 2.114,5.147 v 5.067 c 0,4.041 -3.222,7.262 -7.262,7.262 -1.997,0 -3.732,-0.713 -5.147,-2.114 C 0.713,156.727 0,154.991 0,152.995 Z" id="path26"/>
  </g>
  <path fill="#5c6f7b" d="M 25.428,79.124 C 25.428,35.424 60.853,0 104.552,0 c 43.699,0 79.123,35.424 79.123,79.124 0,14.938 -4.139,28.909 -11.333,40.828 h -26.366 c 10.352,-10.5 16.738,-24.918 16.738,-40.828 0,-32.123 -26.039,-58.163 -58.162,-58.163 -32.123,0 -58.163,26.04 -58.163,58.163 0,15.91 6.388,30.328 16.738,40.828 H 36.761 C 29.568,108.032 25.428,94.062 25.428,79.124 Z" id="path30"/>
  <path fill="#00bce4" d="m 94.122,79.124 c 0,-2.882 1.168,-5.491 3.059,-7.379 l 17.436,-17.494 c -9.682,-3.913 -21.184,-1.944 -29.033,5.905 -10.476,10.476 -10.476,27.461 0,37.937 10.476,10.477 27.461,10.477 37.938,0 4.547,-4.547 7.12,-10.321 7.721,-16.256 l 18.46,-18.461 c 5.838,16.774 2.056,36.151 -11.345,49.553 -18.67,18.67 -48.939,18.67 -67.609,0 -18.67,-18.67 -18.67,-48.938 0,-67.608 18.669,-18.67 48.939,-18.67 67.609,0 2.535,2.536 4.728,5.287 6.574,8.193 l -32.986,32.997 c -1.888,1.89 -4.511,3.045 -7.393,3.045 C 98.791,89.554 94.122,84.884 94.122,79.124 Z" id="path32"/>
</svg>